<svg width="50" height="50" viewBox="0 0 24 24" fill="none" xmlns="http://www.w3.org/2000/svg">
<path d="M12.82 6.33999C12.8203 6.43104 12.8017 6.52115 12.7654 6.60467C12.7292 6.68819 12.6761 6.7633 12.6094 6.82529C12.5427 6.88728 12.4639 6.9348 12.378 6.96487C12.292 6.99493 12.2008 7.00689 12.11 6.99999C11.525 6.99999 11.46 6.35999 11.46 6.35999C11.3626 5.07728 11.5968 3.79108 12.14 2.62499C13.26 0.244995 14.77 -0.110005 15.535 1.92999C16.3 3.96999 15.01 2.335 13.835 3.62499C13.2107 4.3957 12.8544 5.34876 12.82 6.33999Z" fill="#6DD627"/>
<path d="M12.74 3.785C13.65 1.87 14.82 1.285 15.635 2.215L15.535 1.93C14.77 -0.110003 13.26 0.244998 12.14 2.605C11.5968 3.77108 11.3626 5.05728 11.46 6.34C11.46 6.34 11.5 6.93 12.04 7C12.0377 5.89028 12.2765 4.79331 12.74 3.785Z" fill="#9CEB60"/>
<path opacity="0.15" d="M2.16 22.48C2.16 22.6139 2.41452 22.7466 2.90903 22.8703C3.40354 22.9941 4.12834 23.1065 5.04207 23.2012C5.9558 23.296 7.04056 23.3711 8.2344 23.4224C9.42824 23.4736 10.7078 23.5 12 23.5C13.2922 23.5 14.5718 23.4736 15.7656 23.4224C16.9595 23.3711 18.0442 23.296 18.9579 23.2012C19.8717 23.1065 20.5965 22.9941 21.091 22.8703C21.5855 22.7466 21.84 22.6139 21.84 22.48C21.84 22.3461 21.5855 22.2134 21.091 22.0897C20.5965 21.9659 19.8717 21.8535 18.9579 21.7588C18.0442 21.664 16.9595 21.5889 15.7656 21.5376C14.5718 21.4864 13.2922 21.46 12 21.46C10.7078 21.46 9.42824 21.4864 8.2344 21.5376C7.04056 21.5889 5.9558 21.664 5.04207 21.7588C4.12834 21.8535 3.40354 21.9659 2.90903 22.0897C2.41452 22.2134 2.16 22.3461 2.16 22.48Z" fill="#45413C"/>
<path d="M12.82 6.33999C12.8203 6.43104 12.8017 6.52115 12.7654 6.60467C12.7292 6.68819 12.6761 6.7633 12.6094 6.82529C12.5427 6.88728 12.4639 6.9348 12.378 6.96487C12.292 6.99493 12.2008 7.00689 12.11 6.99999C11.525 6.99999 11.46 6.35999 11.46 6.35999C11.3626 5.07728 11.5968 3.79108 12.14 2.62499C13.26 0.244995 14.77 -0.110005 15.535 1.92999C16.3 3.96999 15.01 2.335 13.835 3.62499C13.2107 4.3957 12.8544 5.34876 12.82 6.33999V6.33999Z" stroke="#45413C" stroke-width="0.5" stroke-linecap="round" stroke-linejoin="round"/>
<path d="M18.325 5.28999C17.5138 5.01178 16.6498 4.92256 15.7988 5.02914C14.9479 5.13572 14.1325 5.4353 13.415 5.90499C12.9985 6.19093 12.5052 6.34398 12 6.34398C11.4948 6.34398 11.0015 6.19093 10.585 5.90499C9.86748 5.4353 9.05214 5.13572 8.2012 5.02914C7.35026 4.92256 6.48621 5.01178 5.67501 5.28999C2.53001 6.20999 1.08501 10.75 2.45501 15.425C3.82501 20.1 7.50001 23.145 10.63 22.22C10.8794 22.1486 11.1207 22.0514 11.35 21.93C11.5496 21.8219 11.773 21.7653 12 21.7653C12.227 21.7653 12.4504 21.8219 12.65 21.93C12.8793 22.0514 13.1206 22.1486 13.37 22.22C16.5 23.145 20.175 20.1 21.545 15.425C22.915 10.75 21.47 6.20999 18.325 5.28999Z" fill="#FF6242"/>
<path d="M5.675 7.5C6.48722 7.24736 7.34307 7.16624 8.18829 7.26178C9.03352 7.35732 9.84967 7.62743 10.585 8.055C11.0121 8.31254 11.5013 8.44865 12 8.44865C12.4987 8.44865 12.9879 8.31254 13.415 8.055C14.1503 7.62743 14.9665 7.35732 15.8117 7.26178C16.6569 7.16624 17.5128 7.24736 18.325 7.5C20.465 8.065 21.825 10.15 22.03 12.75C22.29 9.13 20.86 6.035 18.325 5.295C17.5138 5.01678 16.6497 4.92756 15.7988 5.03415C14.9479 5.14073 14.1325 5.4403 13.415 5.91C12.9985 6.19594 12.5052 6.34899 12 6.34899C11.4948 6.34899 11.0015 6.19594 10.585 5.91C9.86747 5.4403 9.05213 5.14073 8.20119 5.03415C7.35025 4.92756 6.48621 5.01678 5.675 5.295C3.14 6.035 1.71 9.13 1.97 12.75C2.185 10.145 3.535 8.06 5.675 7.5Z" fill="#FF866E"/>
<path d="M18.325 5.28999C17.5138 5.01178 16.6498 4.92256 15.7988 5.02914C14.9479 5.13572 14.1325 5.4353 13.415 5.90499C12.9985 6.19093 12.5052 6.34398 12 6.34398C11.4948 6.34398 11.0015 6.19093 10.585 5.90499C9.86748 5.4353 9.05214 5.13572 8.2012 5.02914C7.35026 4.92256 6.48621 5.01178 5.67501 5.28999C2.53001 6.20999 1.08501 10.75 2.45501 15.425C3.82501 20.1 7.50001 23.145 10.63 22.22C10.8794 22.1486 11.1207 22.0514 11.35 21.93C11.5496 21.8219 11.773 21.7653 12 21.7653C12.227 21.7653 12.4504 21.8219 12.65 21.93C12.8793 22.0514 13.1206 22.1486 13.37 22.22C16.5 23.145 20.175 20.1 21.545 15.425C22.915 10.75 21.47 6.20999 18.325 5.28999Z" stroke="#45413C" stroke-width="0.5" stroke-linecap="round" stroke-linejoin="round"/>
<path d="M11.455 6.28C11.455 6.28 12.195 3.415 9.76002 2.21C8.39002 1.53 6.60001 2.16 5.94501 2.435C5.87103 2.4642 5.81032 2.51951 5.77439 2.59046C5.73845 2.66141 5.72978 2.74308 5.75001 2.82C5.94001 3.61 6.66501 5.82 8.75001 5.94C11.35 6.09 11.455 6.28 11.455 6.28Z" fill="#6DD627"/>
<path d="M6.055 3.74C6.78 3.45 8.45501 2.915 9.76001 3.56C10.2318 3.7876 10.6386 4.13051 10.9427 4.557C11.2469 4.98349 11.4385 5.47979 11.5 6C11.615 5.245 11.715 3.195 9.75001 2.22C8.38001 1.54 6.59 2.17 5.935 2.445C5.86102 2.4742 5.80032 2.52951 5.76438 2.60046C5.72844 2.67142 5.71977 2.75308 5.74 2.83C5.81917 3.14167 5.92455 3.44609 6.055 3.74Z" fill="#9CEB60"/>
<path d="M11.455 6.28C11.455 6.28 12.195 3.415 9.76002 2.21C8.39002 1.53 6.60001 2.16 5.94501 2.435C5.87103 2.4642 5.81032 2.51951 5.77439 2.59046C5.73845 2.66141 5.72978 2.74308 5.75001 2.82C5.94001 3.61 6.66501 5.82 8.75001 5.94C11.35 6.09 11.455 6.28 11.455 6.28Z" stroke="#45413C" stroke-width="0.5" stroke-linecap="round" stroke-linejoin="round"/>
<path d="M11.455 6.27999C11.0356 5.10695 10.1869 4.13668 9.08002 3.56499L11.455 6.27999Z" fill="#6DD627"/>
<path d="M11.455 6.27999C11.0356 5.10695 10.1869 4.13668 9.08002 3.56499" stroke="#45413C" stroke-width="0.5" stroke-linecap="round" stroke-linejoin="round"/>
</svg>
